<svg width="12" height="12" viewBox="0 0 12 12" fill="none" xmlns="http://www.w3.org/2000/svg">
<g clip-path="url(#clip0_1_560)">
<path d="M11.4905 1.08274H9.68155V0.522241C9.68155 0.241995 9.45225 0.0126953 9.172 0.0126953C8.89175 0.0126953 8.66245 0.241995 8.66245 0.522241V1.08276H3.31213V0.522241C3.31213 0.241995 3.08283 0.0126953 2.80259 0.0126953C2.52234 0.0126953 2.29299 0.241971 2.29299 0.522241V1.08276H0.509546C0.229299 1.08274 0 1.31203 0 1.59231V11.4777C0 11.7579 0.229299 11.9872 0.509546 11.9872H11.465C11.7452 11.9872 11.9745 11.7579 12 11.4777V1.59231C12 1.31203 11.7707 1.08274 11.4905 1.08274ZM10.9809 10.9936H0.993631V2.10185H2.29299V2.48402C2.29299 2.76426 2.52229 2.99356 2.80254 2.99356C3.05732 2.99356 3.28662 2.78975 3.31209 2.50948V2.10185H8.6624V2.48402C8.6624 2.76426 8.8917 2.99356 9.17195 2.99356C9.4522 2.99356 9.6815 2.78975 9.6815 2.50948V2.10185H10.9809V10.9936H10.9809Z" fill="#2B2B2B"/>
</g>
<defs>
<clipPath id="clip0_1_560">
<rect width="12" height="12" fill="white"/>
</clipPath>
</defs>
</svg>
