<svg width="17" height="17" viewBox="0 0 17 17" fill="none" xmlns="http://www.w3.org/2000/svg">
<g clip-path="url(#clip0_1_555)">
<path d="M8.50071 0C3.81385 0 0.000793457 3.81298 0.000793457 8.49976C0.000793457 13.1869 3.81385 17 8.50071 17C13.1875 17 17.0005 13.1868 17.0005 8.49976C17.0005 3.81298 13.1875 0 8.50071 0ZM8.50071 15.7815C4.48571 15.7815 1.21926 12.5149 1.21926 8.49976C1.21926 4.48484 4.48571 1.21846 8.50071 1.21846C12.5156 1.21846 15.782 4.48484 15.782 8.49976C15.782 12.5149 12.5156 15.7815 8.50071 15.7815Z" fill="#2B2B2B"/>
<path d="M12.8711 8.35739H8.87666V3.99107C8.87666 3.65461 8.60397 3.38184 8.26743 3.38184C7.93098 3.38184 7.6582 3.65461 7.6582 3.99107V8.96662C7.6582 9.30308 7.93098 9.57585 8.26743 9.57585H12.8711C13.2076 9.57585 13.4803 9.30308 13.4803 8.96662C13.4803 8.63016 13.2076 8.35739 12.8711 8.35739Z" fill="#2B2B2B"/>
</g>
<defs>
<clipPath id="clip0_1_555">
<rect width="17" height="17" fill="white"/>
</clipPath>
</defs>
</svg>
