<svg width="12" height="12" viewBox="0 0 12 12" fill="none" xmlns="http://www.w3.org/2000/svg">
<path d="M11.5312 1.78125C11.3509 1.78125 2.17557 1.78125 0.46875 1.78125C0.209839 1.78125 0 1.99109 0 2.25V9.75C0 10.0089 0.209839 10.2188 0.46875 10.2188H11.5312C11.7902 10.2188 12 10.0089 12 9.75V2.25C12 1.99109 11.7902 1.78125 11.5312 1.78125ZM2.88281 2.71875H4.75781V4.53049L4.12042 3.9993C3.94666 3.85446 3.69406 3.85437 3.5202 3.9993L2.88281 4.53049V2.71875ZM11.0625 9.28125H0.9375V2.71875H1.94531V5.53125C1.94531 5.92758 2.40912 6.14557 2.71417 5.89133L3.82031 4.96957L4.92645 5.89133C5.22867 6.14319 5.69531 5.93152 5.69531 5.53125V2.71875H11.0625V9.28125ZM10.0547 7.40625C10.0547 7.66516 9.84485 7.875 9.58594 7.875H2.41406C2.15515 7.875 1.94531 7.66516 1.94531 7.40625C1.94531 7.14734 2.15515 6.9375 2.41406 6.9375H9.58594C9.84485 6.9375 10.0547 7.14734 10.0547 7.40625ZM6.58594 5.53125C6.58594 5.27234 6.79578 5.0625 7.05469 5.0625H9.58594C9.84485 5.0625 10.0547 5.27234 10.0547 5.53125C10.0547 5.79016 9.84485 6 9.58594 6H7.05469C6.79578 6 6.58594 5.79016 6.58594 5.53125Z" fill="#2B2B2B"/>
</svg>
