<svg width="165" height="17" viewBox="0 0 165 17" fill="none" xmlns="http://www.w3.org/2000/svg">
<path d="M20.8583 3.29932H23.5268V7.41681H28.0956V3.29932H30.7641V13.9445H28.0956V9.62621H23.5268V13.9445H20.8583V3.29932Z" fill="black"/>
<path d="M38.0492 14.1856C37.3215 14.1856 36.6274 14.0785 35.9669 13.8642C35.32 13.6366 34.754 13.3019 34.2688 12.86C33.7836 12.4047 33.3995 11.8356 33.1165 11.1527C32.8335 10.4564 32.692 9.64633 32.692 8.72241V8.3207C32.692 7.43695 32.8268 6.667 33.0963 6.01089C33.3659 5.35477 33.7365 4.81246 34.2081 4.38398C34.6799 3.9421 35.2257 3.61403 35.8457 3.3998C36.4657 3.17216 37.1327 3.05835 37.847 3.05835C39.5317 3.05835 40.812 3.50023 41.6881 4.38398C42.5641 5.26773 43.0022 6.5465 43.0022 8.22028V9.34506H35.4212C35.4346 9.81372 35.5155 10.2221 35.6637 10.5703C35.8119 10.905 36.0074 11.1795 36.2499 11.3938C36.4926 11.608 36.7689 11.7687 37.0788 11.8758C37.4023 11.9695 37.7258 12.0164 38.0492 12.0164C38.7366 12.0164 39.2554 11.916 39.6058 11.7151C39.9562 11.5143 40.2056 11.2197 40.3538 10.8314H42.8C42.5844 11.9428 42.052 12.7796 41.2029 13.342C40.3538 13.9044 39.3026 14.1856 38.0492 14.1856ZM37.9482 5.22757C37.6381 5.22757 37.3282 5.26773 37.0183 5.34806C36.7217 5.42841 36.4588 5.55562 36.2297 5.7297C36.0007 5.90376 35.8119 6.1381 35.6637 6.43268C35.5155 6.72726 35.4346 7.08211 35.4212 7.4972H40.4145C40.4009 7.05533 40.3268 6.68709 40.192 6.39251C40.0708 6.09792 39.8957 5.8636 39.6665 5.68952C39.4508 5.51545 39.1947 5.39494 38.8983 5.32799C38.6018 5.26104 38.285 5.22757 37.9482 5.22757Z" fill="black"/>
<path d="M47.3346 5.50871H43.9181V3.29932H53.4195V5.50871H50.003V13.9445H47.3346V5.50871Z" fill="black"/>
<path d="M59.6863 14.1856C58.9584 14.1856 58.2643 14.0785 57.604 13.8642C56.9571 13.6366 56.3911 13.2952 55.9059 12.8399C55.4207 12.3846 55.0366 11.8155 54.7536 11.1327C54.4706 10.4497 54.3291 9.64633 54.3291 8.72241V8.3207C54.3291 7.45033 54.4706 6.68709 54.7536 6.03097C55.0366 5.37485 55.4207 4.82586 55.9059 4.38398C56.3911 3.9421 56.9571 3.61403 57.604 3.3998C58.2643 3.17216 58.9584 3.05835 59.6863 3.05835C60.414 3.05835 61.1014 3.17216 61.7483 3.3998C62.3952 3.61403 62.9612 3.9421 63.4464 4.38398C63.9451 4.82586 64.3359 5.37485 64.619 6.03097C64.902 6.68709 65.0435 7.45033 65.0435 8.3207V8.72241C65.0435 9.63295 64.902 10.4297 64.619 11.1126C64.3359 11.7955 63.9451 12.3646 63.4464 12.8198C62.9612 13.2751 62.3952 13.6165 61.7483 13.8442C61.1014 14.0718 60.414 14.1856 59.6863 14.1856ZM59.6863 11.9361C60.4409 11.9361 61.0676 11.6683 61.5664 11.1327C62.0785 10.597 62.3345 9.79363 62.3345 8.72241V8.3207C62.3345 7.34322 62.0785 6.60005 61.5664 6.09123C61.0676 5.56902 60.4409 5.3079 59.6863 5.3079C58.9181 5.3079 58.2846 5.56902 57.786 6.09123C57.2872 6.60005 57.038 7.34322 57.038 8.3207V8.72241C57.038 9.80701 57.2872 10.6171 57.786 11.1527C58.2846 11.675 58.9181 11.9361 59.6863 11.9361Z" fill="black"/>
<path d="M66.8598 14.1856C66.7519 14.1856 66.6173 14.1789 66.4556 14.1655C66.2938 14.1655 66.159 14.1521 66.0511 14.1253V11.7352C66.1185 11.7485 66.2197 11.7552 66.3544 11.7552C66.6104 11.7552 66.8329 11.6816 67.0215 11.5343C67.2102 11.3736 67.3652 11.1058 67.4865 10.7309C67.6213 10.356 67.7156 9.86053 67.7695 9.24459C67.8369 8.61523 67.8707 7.83861 67.8707 6.91468V3.29932H76.3613V13.9445H73.6928V5.50871H70.337V7.31639C70.337 8.69558 70.2629 9.83375 70.1147 10.7309C69.9799 11.6146 69.7641 12.3109 69.4677 12.8198C69.1846 13.3286 68.8208 13.6834 68.3761 13.8843C67.9448 14.0851 67.4393 14.1856 66.8598 14.1856Z" fill="black"/>
<path d="M83.6338 14.1856C82.906 14.1856 82.2119 14.0785 81.5516 13.8642C80.9047 13.6366 80.3385 13.2952 79.8533 12.8399C79.3681 12.3846 78.9841 11.8155 78.7011 11.1327C78.418 10.4497 78.2765 9.64633 78.2765 8.72241V8.3207C78.2765 7.45033 78.418 6.68709 78.7011 6.03097C78.9841 5.37485 79.3681 4.82586 79.8533 4.38398C80.3385 3.9421 80.9047 3.61403 81.5516 3.3998C82.2119 3.17216 82.906 3.05835 83.6338 3.05835C84.3616 3.05835 85.049 3.17216 85.6957 3.3998C86.3426 3.61403 86.9088 3.9421 87.394 4.38398C87.8925 4.82586 88.2834 5.37485 88.5664 6.03097C88.8494 6.68709 88.991 7.45033 88.991 8.3207V8.72241C88.991 9.63295 88.8494 10.4297 88.5664 11.1126C88.2834 11.7955 87.8925 12.3646 87.394 12.8198C86.9088 13.2751 86.3426 13.6165 85.6957 13.8442C85.049 14.0718 84.3616 14.1856 83.6338 14.1856ZM83.6338 11.9361C84.3885 11.9361 85.0152 11.6683 85.5139 11.1327C86.026 10.597 86.2821 9.79363 86.2821 8.72241V8.3207C86.2821 7.34322 86.026 6.60005 85.5139 6.09123C85.0152 5.56902 84.3885 5.3079 83.6338 5.3079C82.8655 5.3079 82.2321 5.56902 81.7335 6.09123C81.2348 6.60005 80.9854 7.34322 80.9854 8.3207V8.72241C80.9854 9.80701 81.2348 10.6171 81.7335 11.1527C82.2321 11.675 82.8655 11.9361 83.6338 11.9361Z" fill="black"/>
<path d="M91.1056 3.29932H98.7877V5.50871H93.7742V13.9445H91.1056V3.29932Z" fill="black"/>
<path d="M100.399 3.29932H103.068V10.1283L107.839 3.29932H110.305V13.9445H107.637V7.11554L102.866 13.9445H100.399V3.29932Z" fill="black"/>
<path d="M114.902 9.94757C114.079 9.67976 113.48 9.27806 113.102 8.74245C112.725 8.20683 112.536 7.57749 112.536 6.85442C112.536 6.33221 112.624 5.85686 112.799 5.42837C112.988 4.98649 113.264 4.61156 113.628 4.30358C113.992 3.98222 114.45 3.7345 115.003 3.56044C115.569 3.38636 116.229 3.29932 116.984 3.29932H122.038V13.9445H119.369V10.2689H117.449L115.124 13.9445H112.132L114.902 9.94757ZM115.205 6.85442C115.205 7.30969 115.353 7.64445 115.649 7.85869C115.96 8.07293 116.371 8.18006 116.883 8.18006H119.369V5.50871H116.883C116.371 5.50871 115.96 5.62252 115.649 5.85015C115.353 6.0644 115.205 6.39916 115.205 6.85442Z" fill="black"/>
<path fill-rule="evenodd" clip-rule="evenodd" d="M3.44929 8.81931C3.3641 8.81253 3.27797 8.80908 3.19104 8.80908C1.42868 8.80908 0 10.2275 0 11.9773C0 13.727 1.42868 15.1454 3.19104 15.1454C4.95339 15.1454 6.38208 13.727 6.38208 11.9773C6.38208 11.8429 6.37365 11.7106 6.35731 11.5807C4.84828 11.4607 3.63532 10.2984 3.44929 8.81931Z" fill="#5D00F5"/>
<path fill-rule="evenodd" clip-rule="evenodd" d="M6.38208 5.02267C6.38208 3.27294 4.95339 1.85449 3.19104 1.85449C1.42868 1.85449 1.75087e-07 3.27294 0 5.02267C-3.17023e-07 6.77241 1.42868 8.19086 3.19104 8.19086C3.27265 8.19086 3.35355 8.18781 3.4336 8.18185C3.55155 6.6241 4.80402 5.3806 6.373 5.2635C6.37901 5.18402 6.38208 5.1037 6.38208 5.02267Z" fill="#EB236B"/>
<path fill-rule="evenodd" clip-rule="evenodd" d="M9.79634 8.16627C9.92721 8.18249 10.0605 8.19086 10.1958 8.19086C11.9582 8.19086 13.3868 6.77241 13.3868 5.02267C13.3868 3.27294 11.9582 1.85449 10.1958 1.85449C8.43344 1.85449 7.00476 3.27294 7.00476 5.02267C7.00476 5.10899 7.00823 5.1945 7.01507 5.27908C8.5048 5.46378 9.67549 6.66804 9.79634 8.16627Z" fill="#4BD0A0"/>
<path fill-rule="evenodd" clip-rule="evenodd" d="M7.03163 11.5642C7.0139 11.6994 7.00476 11.8373 7.00476 11.9773C7.00476 13.727 8.43344 15.1454 10.1958 15.1454C11.9582 15.1454 13.3868 13.727 13.3868 11.9773C13.3868 10.2275 11.9582 8.80908 10.1958 8.80908C10.0548 8.80908 9.91594 8.81815 9.77978 8.83576C9.59364 10.2551 8.46126 11.3794 7.03163 11.5642Z" fill="#0066FF"/>
</svg>
