<svg width="14" height="14" viewBox="0 0 14 14" fill="none" xmlns="http://www.w3.org/2000/svg">
<g clip-path="url(#clip0_1_574)">
<path d="M6.61417 0.561591C6.68666 0.414743 6.83621 0.321777 6.99998 0.321777C7.16376 0.321749 7.31333 0.414715 7.38582 0.561562L9.064 3.96141C9.22181 4.2811 9.52681 4.50273 9.87964 4.55397L13.6318 5.09941C13.7939 5.12299 13.9285 5.23649 13.9791 5.39225C14.0297 5.54799 13.9875 5.71898 13.8703 5.83331L11.1554 8.48C10.9001 8.72891 10.7836 9.08745 10.8438 9.4388L11.4844 13.1752C11.5121 13.3367 11.4457 13.4998 11.3132 13.596C11.1808 13.6923 11.0051 13.7049 10.8602 13.6287L7.50409 11.8647C7.18853 11.6988 6.81152 11.6988 6.4959 11.8647L3.14013 13.6287C2.99516 13.7049 2.81951 13.6921 2.68704 13.5959C2.55453 13.4996 2.48821 13.3365 2.51587 13.1751L3.15675 9.43897C3.21705 9.0875 3.10054 8.72891 2.84519 8.47995L0.130155 5.83334C0.0129044 5.71901 -0.0293321 5.54802 0.0212835 5.39228C0.071899 5.23654 0.206533 5.12304 0.368605 5.09944L4.12063 4.55403C4.47346 4.50273 4.77849 4.28113 4.9363 3.96138L6.61417 0.561591Z" fill="#FFB800"/>
</g>
<defs>
<clipPath id="clip0_1_574">
<rect width="14" height="14" fill="white"/>
</clipPath>
</defs>
</svg>
