<svg width="12" height="12" viewBox="0 0 12 12" fill="none" xmlns="http://www.w3.org/2000/svg">
<g clip-path="url(#clip0_1_566)">
<path d="M11.5305 2.66667H9.2865V1.35207C9.2865 1.09276 9.07631 0.882568 8.817 0.882568H3.183C2.9237 0.882568 2.7135 1.09276 2.7135 1.35207V2.66667H0.4695C0.210195 2.66667 0 2.87686 0 3.13617V10.6482C0 10.9075 0.210195 11.1177 0.4695 11.1177H11.5305C11.7898 11.1177 12 10.9075 12 10.6482C12 6.49774 12 3.34739 12 3.13617C12 2.87686 11.7898 2.66667 11.5305 2.66667ZM3.6525 1.82157H8.3475V2.66667H3.6525V1.82157ZM0.939 3.60567H11.061V4.67777L6 6.39633L0.939 4.67777V3.60567ZM0.939 10.1787V5.66942L5.84903 7.33673C5.94692 7.36997 6.05305 7.36997 6.15095 7.33673L11.061 5.66942V10.1787H0.939Z" fill="#2B2B2B"/>
</g>
<defs>
<clipPath id="clip0_1_566">
<rect width="12" height="12" fill="white"/>
</clipPath>
</defs>
</svg>
